# xmcd
#
# Track frame offsets:
#	150
#	27775
#	50722
#	73175
#
# Disc length: 1274 seconds
#
# Revision: 1
# Processed by: cddbd v1.5.1PL0 Copyright (c) Steve Scherf et al.
# Submitted via: audiograbber 1.83.01
#
DISCID=3404f804
DTITLE=Paul Brady - Promo Disc
DYEAR=1992
DGENRE=
TTITLE0=Dreams Will Come
TTITLE1=Love Goes On
TTITLE2=Don't Keep Pretending
TTITLE3=Can't Stop Wanting You
EXTD=
EXTT0=
EXTT1=
EXTT2=
EXTT3=
PLAYORDER=
